<svg width="263" height="247" viewBox="0 0 263 247" fill="none" xmlns="http://www.w3.org/2000/svg">
<path d="M175.556 57.8445C137.742 68.1423 101.678 23.8852 127.772 -2.20873C139.026 -13.4629 157.203 -14.7657 172.326 -8.31637C207.253 6.58017 208.026 49.0075 175.556 57.8445Z" fill="#FFFEFD" fill-opacity="0.2"/>
<path d="M145.876 77.5785C174.74 48.7153 232.259 88.9506 212.873 124.408C204.04 140.561 181.052 145.986 160.436 134.496C137.323 121.622 129.65 93.8049 145.876 77.5785Z" fill="#FFFEFD" fill-opacity="0.2"/>
<path d="M51.4497 -2.00143C48.5464 3.11202 42.1441 10.9379 34.8005 18.4872C27.0442 26.4734 18.2406 34.1518 11.4364 38.0119C-6.96546 48.4124 -16.8819 77.6871 7.51994 93.49C30.0808 108.097 43.3112 92.7492 64.3023 106.982C85.5064 121.377 107.328 116.736 119.517 103.204C130.797 90.6775 133.822 70.5328 120.44 50.8368C106.175 29.8533 121.503 16.6625 106.896 -5.88644C91.0931 -30.3202 61.8295 -20.31 51.4497 -2.00143Z" fill="#FFFEFD" fill-opacity="0.2"/>
<path d="M95.0759 128.375C103.24 120.211 114.981 117.928 126.114 121.269C159.217 131.206 169.985 180.021 141.887 195.359C106.361 214.769 66.2285 157.223 95.0759 128.375Z" fill="#FFFEFD" fill-opacity="0.2"/>
<path d="M49.0886 108.48C80.9692 121.826 86.6235 171.415 56.9521 183.704C21.2127 198.509 -12.7884 142.215 14.999 114.428C23.9167 105.51 36.9697 103.407 49.0886 108.48Z" fill="#FFFEFD" fill-opacity="0.2"/>
</svg>
